<svg width="25" height="25" viewBox="0 0 25 25" fill="none" xmlns="http://www.w3.org/2000/svg">
<path fill-rule="evenodd" clip-rule="evenodd" d="M5 0.5C5.82843 0.5 6.5 1.17157 6.5 2V3.5H8C8.82843 3.5 9.5 4.17157 9.5 5C9.5 5.82843 8.82843 6.5 8 6.5H6.5V8C6.5 8.82843 5.82843 9.5 5 9.5C4.17157 9.5 3.5 8.82843 3.5 8V6.5H2C1.17157 6.5 0.5 5.82843 0.5 5C0.5 4.17157 1.17157 3.5 2 3.5H3.5V2C3.5 1.17157 4.17157 0.5 5 0.5ZM5 15.5C5.82843 15.5 6.5 16.1716 6.5 17V18.5H8C8.82843 18.5 9.5 19.1716 9.5 20C9.5 20.8284 8.82843 21.5 8 21.5H6.5V23C6.5 23.8284 5.82843 24.5 5 24.5C4.17157 24.5 3.5 23.8284 3.5 23V21.5H2C1.17157 21.5 0.5 20.8284 0.5 20C0.5 19.1716 1.17157 18.5 2 18.5H3.5V17C3.5 16.1716 4.17157 15.5 5 15.5Z" fill="#FFD166"/>
<path fill-rule="evenodd" clip-rule="evenodd" d="M15.4999 0.5C16.1805 0.5 16.7758 0.958224 16.95 1.61616L18.7188 8.2984L23.7495 11.2007C24.2138 11.4686 24.4999 11.9639 24.4999 12.5C24.4999 13.0361 24.2138 13.5314 23.7495 13.7993L18.7188 16.7016L16.95 23.3838C16.7758 24.0418 16.1805 24.5 15.4999 24.5C14.8193 24.5 14.224 24.0418 14.0499 23.3838L12.281 16.7016L7.25041 13.7993C6.78608 13.5314 6.5 13.0361 6.5 12.5C6.5 11.9639 6.78608 11.4686 7.25041 11.2007L12.281 8.2984L14.0499 1.61616C14.224 0.958224 14.8193 0.5 15.4999 0.5Z" fill="#FFD166"/>
<path fill-rule="evenodd" clip-rule="evenodd" d="M5 0.5C5.82843 0.5 6.5 1.17157 6.5 2V3.5H8C8.82843 3.5 9.5 4.17157 9.5 5C9.5 5.82843 8.82843 6.5 8 6.5H6.5V8C6.5 8.82843 5.82843 9.5 5 9.5C4.17157 9.5 3.5 8.82843 3.5 8V6.5H2C1.17157 6.5 0.5 5.82843 0.5 5C0.5 4.17157 1.17157 3.5 2 3.5H3.5V2C3.5 1.17157 4.17157 0.5 5 0.5ZM5 15.5C5.82843 15.5 6.5 16.1716 6.5 17V18.5H8C8.82843 18.5 9.5 19.1716 9.5 20C9.5 20.8284 8.82843 21.5 8 21.5H6.5V23C6.5 23.8284 5.82843 24.5 5 24.5C4.17157 24.5 3.5 23.8284 3.5 23V21.5H2C1.17157 21.5 0.5 20.8284 0.5 20C0.5 19.1716 1.17157 18.5 2 18.5H3.5V17C3.5 16.1716 4.17157 15.5 5 15.5Z" stroke="black" stroke-linecap="round" stroke-linejoin="round"/>
<path fill-rule="evenodd" clip-rule="evenodd" d="M15.4999 0.5C16.1805 0.5 16.7758 0.958224 16.95 1.61616L18.7188 8.2984L23.7495 11.2007C24.2138 11.4686 24.4999 11.9639 24.4999 12.5C24.4999 13.0361 24.2138 13.5314 23.7495 13.7993L18.7188 16.7016L16.95 23.3838C16.7758 24.0418 16.1805 24.5 15.4999 24.5C14.8193 24.5 14.224 24.0418 14.0499 23.3838L12.281 16.7016L7.25041 13.7993C6.78608 13.5314 6.5 13.0361 6.5 12.5C6.5 11.9639 6.78608 11.4686 7.25041 11.2007L12.281 8.2984L14.0499 1.61616C14.224 0.958224 14.8193 0.5 15.4999 0.5Z" stroke="black" stroke-linecap="round" stroke-linejoin="round"/>
</svg>
